<?xml version="1.0" encoding="UTF-8" standalone="no"?>
<svg width="380px" height="71px" viewBox="0 0 380 71" version="1.1" xmlns="http://www.w3.org/2000/svg" xmlns:xlink="http://www.w3.org/1999/xlink">
    <!-- Generator: Sketch 46.2 (44496) - http://www.bohemiancoding.com/sketch -->
    <title>logo футер</title>
    <desc>Created with Sketch.</desc>
    <defs>
        <linearGradient x1="0%" y1="0%" x2="100%" y2="100%" id="linearGradient-1">
            <stop stop-color="#FAD961" offset="0%"></stop>
            <stop stop-color="#FDBD70" offset="20%"></stop>
            <stop stop-color="#FE9F7D" offset="40%"></stop>
            <stop stop-color="#FD7F87" offset="60%"></stop>
            <stop stop-color="#FB5A91" offset="80%"></stop>
            <stop stop-color="#F71C99" offset="100%"></stop>
        </linearGradient>
    </defs>
    <g id="Page-1" stroke="none" stroke-width="1" fill="none" fill-rule="evenodd">
        <g id="Power-Print-White-v3" transform="translate(-1268.000000, -6420.000000)">
            <g id="ФУТЕР" transform="translate(0.000000, 6220.000000)">
                <g id="logo-футер" transform="translate(1276.000000, 203.000000)">
                    <path d="M0,45.0309808 L15,60 L15,45.0309808 C18.6020009,45.0309808 22.7713927,45.0309808 27.5081755,45.0309808 C34.6133496,45.0309808 45,41.8672591 45,30.767148 C45,19.6670369 35.967232,15.2481881 30.20075,14.9690192 C24.1110007,14.9226978 19.0440841,14.9226978 15,14.9690192 L0.0164645988,2.78529665e-14 C6.57365914,-9.28432215e-15 11.5681709,-9.28432215e-15 15,2.78529665e-14 C20.1477436,8.27254391e-14 30.20075,4.71702683 30.20075,14.9690192 C30.20075,25.2210116 20.1681241,30.2574683 15,30.2574683 C11.5545839,30.2574683 6.55458392,30.2574683 0,30.2574683 L0,45.0309808 Z" id="Path-3-Copy-3" stroke="url(#linearGradient-1)" stroke-width="6"></path>
                    <g id="Group-32" transform="translate(67.000000, 19.000000)" fill="#FFFFFF">
                        <path d="M15.7216778,1.91266425 C25.0737634,1.91266425 30.4328237,6.46217945 30.4328237,14.4755301 C30.4328237,22.902473 25.0737634,27.7621825 15.7216778,27.7621825 L8.41864471,27.7621825 L8.41864471,38.1019897 L0.117355269,38.1019897 L0.117355269,1.91266425 L15.7216778,1.91266425 Z M15.3013594,20.9379096 C19.9248623,20.9379096 22.5518527,18.8699482 22.5518527,14.7340253 C22.5518527,10.7015004 19.9248623,8.68523802 15.3013594,8.68523802 L8.41864471,8.68523802 L8.41864471,20.9379096 L15.3013594,20.9379096 Z M50.4432687,10.029413 C59.4801155,10.029413 65.574733,15.6646079 65.574733,24.1949489 C65.574733,32.6735909 59.4801155,38.412184 50.4432687,38.412184 C41.3538822,38.412184 35.2592646,32.6735909 35.2592646,24.1949489 C35.2592646,15.6646079 41.3538822,10.029413 50.4432687,10.029413 Z M50.4432687,16.6468896 C46.2400842,16.6468896 43.3503949,19.7488318 43.3503949,24.298347 C43.3503949,28.8478622 46.2400842,31.9498044 50.4432687,31.9498044 C54.5939135,31.9498044 57.4836028,28.8478622 57.4836028,24.298347 C57.4836028,19.7488318 54.5939135,16.6468896 50.4432687,16.6468896 Z M117.476841,26.2629104 L117.476841,10.2879081 L109.43825,10.2879081 L109.43825,25.9010171 C109.43825,29.1063574 107.336658,31.2260179 104.289349,31.2260179 C100.979341,31.2260179 98.7726696,29.1063574 98.7726696,25.9010171 L98.7726696,10.2879081 L90.786619,10.2879081 L90.786619,25.9010171 C90.786619,29.1063574 88.7375665,31.2260179 85.5326383,31.2260179 C82.3277101,31.2260179 80.173578,29.1063574 80.173578,25.9010171 L80.173578,10.2879081 L72.1349876,10.2879081 L72.1349876,26.2629104 C72.1349876,33.6041736 77.0211896,38.463883 84.2191431,38.463883 C88.5799471,38.463883 92.940751,36.1891254 94.8321841,32.776989 C96.8286967,36.1891254 101.189501,38.463883 105.497765,38.463883 C112.695718,38.463883 117.476841,33.6041736 117.476841,26.2629104 Z M139.588878,32.2082996 C142.320948,32.2082996 144.947938,30.9675227 147.10207,28.589367 L151.725573,32.72529 C148.468105,36.4993196 144.159841,38.412184 139.01094,38.412184 C130.026633,38.412184 123.984555,32.72529 123.984555,24.246648 C123.984555,15.8714041 129.606315,10.081112 138.485542,10.029413 C146.681752,9.97771393 152.093352,14.8891224 152.408591,22.850774 L132.863783,27.9172796 C134.072198,30.6056295 136.489029,32.2082996 139.588878,32.2082996 Z M138.905861,15.9231031 C134.912835,15.9231031 132.338385,18.4563559 132.075686,23.1609682 L144.47508,19.8522299 C143.581903,17.16388 141.63793,15.9231031 138.905861,15.9231031 Z M167.585374,15.3027147 L167.585374,10.2879081 L159.494243,10.2879081 L159.494243,38.1019897 L167.585374,38.1019897 L167.585374,24.7119393 C167.585374,20.007327 171.158081,16.9570838 176.937459,17.4740742 L176.937459,9.97771393 C172.734275,10.029413 169.529347,11.8905783 167.585374,15.3027147 Z" id="Power"></path>
                        <path d="M194.683553,1.91266425 C203.772939,1.91266425 209.02692,6.35878138 209.02692,14.0619378 C209.02692,22.0235894 203.772939,26.6248037 194.683553,26.6248037 L185.068768,26.6248037 L185.068768,38.1019897 L180.865583,38.1019897 L180.865583,1.91266425 L194.683553,1.91266425 Z M194.525933,22.799075 C201.145949,22.799075 204.981355,19.8522299 204.981355,14.1653359 C204.981355,8.63353898 201.145949,5.73839294 194.525933,5.73839294 L185.068768,5.73839294 L185.068768,22.799075 L194.525933,22.799075 Z M221.629252,16.9570838 L221.629252,10.9082966 L217.531147,10.9082966 L217.531147,38.1019897 L221.629252,38.1019897 L221.629252,23.6262595 C222.10211,18.1461617 225.727357,14.5789282 231.559276,14.6823262 L231.559276,10.7531995 C226.883233,10.8048985 223.468145,12.976258 221.629252,16.9570838 Z M241.166839,0.361693155 C239.643185,0.361693155 238.487309,1.49907196 238.487309,3.10174208 C238.487309,4.65271318 239.643185,5.84179101 241.166839,5.84179101 C242.690493,5.84179101 243.846369,4.65271318 243.846369,3.10174208 C243.846369,1.49907196 242.690493,0.361693155 241.166839,0.361693155 Z M239.170326,10.9082966 L239.170326,38.1019897 L243.215891,38.1019897 L243.215891,10.9082966 L239.170326,10.9082966 Z M270.109051,10.7531995 C265.06523,10.8048985 261.334903,12.7694619 259.390931,16.9053848 L259.390931,10.9082966 L255.292826,10.9082966 L255.292826,38.1019897 L259.390931,38.1019897 L259.390931,23.5228615 C259.863789,18.2495598 263.226337,14.6823262 268.690476,14.6306272 C273.576678,14.6306272 276.518908,17.5257732 276.518908,22.3854827 L276.518908,38.1019897 L280.617012,38.1019897 L280.617012,21.3515019 C280.617012,14.7340253 276.729067,10.7531995 270.109051,10.7531995 Z M303.254448,33.1388822 C301.730793,34.0177659 300.259679,34.5347562 298.893644,34.5347562 C296.476813,34.5347562 295.163318,32.72529 295.163318,28.8478622 L295.163318,14.8891224 L303.937465,14.8891224 L303.937465,11.7354812 L295.163318,11.7354812 L295.163318,4.60101414 L291.117753,4.60101414 L291.117753,29.5199497 C291.117753,35.3619408 294.059982,38.2570868 298.263166,38.2570868 C300.312219,38.2570868 302.466351,37.5333003 304.462863,36.2408244 L303.254448,33.1388822 Z" id="Print"></path>
                    </g>
                </g>
            </g>
        </g>
    </g>
</svg>