<?xml version="1.0" encoding="UTF-8" standalone="no"?>
<svg width="247px" height="249px" viewBox="0 0 247 249" version="1.1" xmlns="http://www.w3.org/2000/svg" xmlns:xlink="http://www.w3.org/1999/xlink">
    <!-- Generator: Sketch 46.2 (44496) - http://www.bohemiancoding.com/sketch -->
    <title>широкофрматная печать ico</title>
    <desc>Created with Sketch.</desc>
    <defs>
        <circle id="path-1" cx="87.5" cy="94.5" r="82.5"></circle>
        <filter x="-39.1%" y="-39.1%" width="178.2%" height="178.2%" filterUnits="objectBoundingBox" id="filter-3">
            <feOffset dx="0" dy="0" in="SourceAlpha" result="shadowOffsetOuter1"></feOffset>
            <feGaussianBlur stdDeviation="21.5" in="shadowOffsetOuter1" result="shadowBlurOuter1"></feGaussianBlur>
            <feColorMatrix values="0 0 0 0 0   0 0 0 0 0   0 0 0 0 0  0 0 0 0.130717844 0" type="matrix" in="shadowBlurOuter1"></feColorMatrix>
        </filter>
        <linearGradient x1="0%" y1="0%" x2="100%" y2="100%" id="linearGradient-4">
            <stop stop-color="#FAD961" offset="0%"></stop>
            <stop stop-color="#FDBD70" offset="20%"></stop>
            <stop stop-color="#FE9F7D" offset="40%"></stop>
            <stop stop-color="#FD7F87" offset="60%"></stop>
            <stop stop-color="#FB5A91" offset="80%"></stop>
            <stop stop-color="#F71C99" offset="100%"></stop>
        </linearGradient>
    </defs>
    <g id="Page-1" stroke="none" stroke-width="1" fill="none" fill-rule="evenodd">
        <g id="Power-Print-White-v3-пояснения" transform="translate(-418.000000, -1565.000000)">
            <g id="Услуги-ПЕЧАТЬ" transform="translate(435.000000, 797.000000)">
                <g id="контент" transform="translate(0.000000, 209.000000)">
                    <g id="широкофрматная-печать-ico" transform="translate(19.000000, 589.000000)">
                        <mask id="mask-2" fill="white">
                            <use xlink:href="#path-1"></use>
                        </mask>
                        <g id="Mask">
                            <use fill="black" fill-opacity="1" filter="url(#filter-3)" xlink:href="#path-1"></use>
                            <use fill="#FFFFFF" fill-rule="evenodd" xlink:href="#path-1"></use>
                        </g>
                        <g id="maps-and-flags" fill-rule="nonzero">
                            <g id="Rectangle-path" transform="translate(101.000000, 93.000000)" fill="#666666">
                                <rect x="0" y="0" width="18" height="89"></rect>
                            </g>
                            <rect id="Rectangle-path" fill="#CCCCCC" x="32" y="0" width="157" height="74" rx="7"></rect>
                            <rect id="Rectangle-path" fill="#FFFFFF" x="69" y="53" width="32" height="12" rx="2"></rect>
                            <rect id="Rectangle-path" fill="#FFFFFF" x="73" y="33" width="32" height="12" rx="2"></rect>
                            <rect id="Rectangle-path" fill="#FFFFFF" x="124" y="30" width="32" height="12" rx="2"></rect>
                            <rect id="Rectangle-path" fill="#FFFFFF" x="114" y="8" width="32" height="12" rx="2"></rect>
                            <path d="M128.760633,56.9579215 L141.906954,56.9579215 L144.778018,64 L152,64 L138.831518,33 L131.811446,33 L119,64 L126.044695,64 L128.760633,56.9579215 Z M135.243919,40.2300839 L139.772124,51.7332285 L130.801895,51.7332285 L135.243919,40.2300839 Z" id="Shape" fill="#999999"></path>
                            <path d="M88.2640698,50.1878085 L110.175352,50.1878085 L114.9622,62 L127,62 L105.052158,10 L93.3531419,10 L72,62 L83.7404502,62 L88.2640698,50.1878085 Z M99.0710361,22.1266284 L106.619339,41.4205682 L91.6665337,41.4205682 L99.0710361,22.1266284 Z" id="Shape" fill="url(#linearGradient-4)"></path>
                            <g id="Group" transform="translate(28.000000, 82.000000)" fill="#FF7576">
                                <path d="M3.733125,0.262333333 C1.67126953,0.262333333 0,1.99133333 0,4.12366667 L0,10.9993333 L7.46592773,10.9993333 L7.46592773,4.12366667 C7.46592773,1.99133333 5.7946582,0.262333333 3.733125,0.262333333 Z" id="Shape"></path>
                                <path d="M35.2397461,0.262333333 C33.1778906,0.262333333 31.5066211,1.99133333 31.5066211,4.12366667 L31.5066211,10.9993333 L38.9725488,10.9993333 L38.9725488,4.12366667 C38.9728711,1.99133333 37.3016016,0.262333333 35.2397461,0.262333333 Z" id="Shape"></path>
                                <path d="M66.7466895,0.262333333 C64.684834,0.262333333 63.0135645,1.99133333 63.0135645,4.12366667 L63.0135645,10.9993333 L70.4794922,10.9993333 L70.4794922,4.12366667 C70.4794922,1.99133333 68.8082227,0.262333333 66.7466895,0.262333333 Z" id="Shape"></path>
                                <path d="M98.2533105,0.262333333 C96.1914551,0.262333333 94.5201855,1.99133333 94.5201855,4.12366667 L94.5201855,10.9993333 L101.986113,10.9993333 L101.986113,4.12366667 C101.986436,1.99133333 100.315166,0.262333333 98.2533105,0.262333333 Z" id="Shape"></path>
                                <path d="M129.760254,0.262333333 C127.698398,0.262333333 126.027129,1.99133333 126.027129,4.12366667 L126.027129,10.9993333 L133.493057,10.9993333 L133.493057,4.12366667 C133.493379,1.99133333 131.821787,0.262333333 129.760254,0.262333333 Z" id="Shape"></path>
                                <path d="M161.266875,0.262333333 C159.20502,0.262333333 157.53375,1.99133333 157.53375,4.12366667 L157.53375,10.9993333 L165,10.9993333 L165,4.12366667 C165,1.99133333 163.32873,0.262333333 161.266875,0.262333333 Z" id="Shape"></path>
                            </g>
                            <rect id="Rectangle-path" fill="#666666" x="101" y="93" width="18" height="57"></rect>
                            <path d="M189.26656,97 L31.7331177,97 C29.6712663,97 28,95.4327276 28,93.5001511 C28,91.5672724 29.6712663,90 31.7331177,90 L189.266882,90 C191.328734,90 193,91.5672724 193,93.5001511 C192.999678,95.4327276 191.328411,97 189.26656,97 Z" id="Shape" fill="#999999"></path>
                            <g id="advertisement" transform="translate(0.000000, 115.000000)">
                                <path d="M1.99078768,10 C0.891420555,10 0,10.6716592 0,11.5 C0,12.3283408 0.891420555,13 1.99078768,13 L86,13 L86,10.0001295 L1.99078768,10.0001295 L1.99078768,10 Z" id="Shape" fill="#000000"></path>
                                <path d="M86.5,24 C85.6716592,24 85,23.1333273 85,22.0644811 L85,1.93551891 C85,0.8666727 85.6716592,0 86.5,0 C87.3283408,0 88,0.8666727 88,1.93551891 L88,22.0644811 C88,23.1331602 87.3283408,24 86.5,24 Z" id="Shape" fill="#666666"></path>
                                <polygon id="Shape" fill="url(#linearGradient-4)" points="65.9999424 23 62 47.0000856 65.9999424 71 74 71 74 23"></polygon>
                                <g id="Group" transform="translate(8.000000, 9.000000)" fill="#666666">
                                    <path d="M2.00574026,0.0523363636 C0.904957792,0.0523363636 0.0123896104,0.948272727 0.0123896104,2.05320909 L0.0123896104,18.8600909 L3.99909091,18.8600909 L3.99909091,2.05320909 C3.99909091,0.948272727 3.10652273,0.0523363636 2.00574026,0.0523363636 Z" id="Shape"></path>
                                    <path d="M50.8416266,0.0523363636 C49.7408442,0.0523363636 48.848276,0.948272727 48.848276,2.05320909 L48.848276,18.8600909 L52.8348052,18.8600909 L52.8348052,2.05320909 C52.8349773,0.948272727 51.9424091,0.0523363636 50.8416266,0.0523363636 Z" id="Shape"></path>
                                </g>
                                <rect id="Rectangle-path" fill="#CCCCCC" x="2" y="23" width="66" height="48"></rect>
                                <g id="Group" transform="translate(10.000000, 41.000000)" fill="#FFFFFF">
                                    <path d="M46.915007,3.7747561 L2.10442105,3.7747561 C1.00458596,3.7747561 0.112785965,2.95242683 0.112785965,1.93826829 C0.112785965,0.924109756 1.00458596,0.101780488 2.10442105,0.101780488 L46.915007,0.101780488 C48.0148421,0.101780488 48.9066421,0.924109756 48.9066421,1.93826829 C48.9066421,2.95242683 48.0148421,3.7747561 46.915007,3.7747561 Z" id="Shape"></path>
                                    <path d="M38.4509018,12.9570366 L10.5686982,12.9570366 C9.46886316,12.9570366 8.57706316,12.1347073 8.57706316,11.1205488 C8.57706316,10.1063902 9.46886316,9.28406098 10.5686982,9.28406098 L38.4509018,9.28406098 C39.5507368,9.28406098 40.4425368,10.1063902 40.4425368,11.1205488 C40.4423649,12.1345488 39.5505649,12.9570366 38.4509018,12.9570366 Z" id="Shape"></path>
                                </g>
                            </g>
                        </g>
                    </g>
                </g>
            </g>
        </g>
    </g>
</svg>