<?xml version="1.0" encoding="UTF-8" standalone="no"?>
<svg width="203px" height="39px" viewBox="0 0 203 39" version="1.1" xmlns="http://www.w3.org/2000/svg" xmlns:xlink="http://www.w3.org/1999/xlink">
    <!-- Generator: Sketch 46.2 (44496) - http://www.bohemiancoding.com/sketch -->
    <title>small logo</title>
    <desc>Created with Sketch.</desc>
    <defs>
        <linearGradient x1="0%" y1="0%" x2="100%" y2="100%" id="linearGradient-1">
            <stop stop-color="#FAD961" offset="0%"></stop>
            <stop stop-color="#FDBD70" offset="20%"></stop>
            <stop stop-color="#FE9F7D" offset="40%"></stop>
            <stop stop-color="#FD7F87" offset="60%"></stop>
            <stop stop-color="#FB5A91" offset="80%"></stop>
            <stop stop-color="#F71C99" offset="100%"></stop>
        </linearGradient>
    </defs>
    <g id="Page-1" stroke="none" stroke-width="1" fill="none" fill-rule="evenodd">
        <g id="Power-Print-White-v3" transform="translate(-373.000000, -10.000000)">
            <g id="small-logo" transform="translate(378.000000, 12.000000)">
                <path d="M0,24.0165231 L8,32 L8,24.0165231 C9.92106715,24.0165231 12.1447428,24.0165231 14.6710269,24.0165231 C18.4604531,24.0165231 24,22.3292048 24,16.4091456 C24,10.4890863 19.1825238,8.132367 16.1070667,7.98347693 C12.8592004,7.95877216 10.1568448,7.95877216 8,7.98347693 L0.00878111934,1.48549154e-14 C3.50595154,-4.95163848e-15 6.16969117,-4.95163848e-15 8,1.48549154e-14 C10.7454632,4.41202342e-14 16.1070667,2.51574765 16.1070667,7.98347693 C16.1070667,13.4512062 10.7563329,16.1373164 8,16.1373164 C6.16244476,16.1373164 3.49577809,16.1373164 0,16.1373164 L0,24.0165231 Z" id="Path-3-Copy-3" stroke="url(#linearGradient-1)" stroke-width="4"></path>
                <g id="Group-32" transform="translate(36.000000, 10.000000)" fill="#4A4A4A">
                    <path d="M8.35053051,1.02989613 C13.3178678,1.02989613 16.1643195,3.47963509 16.1643195,7.79451621 C16.1643195,12.3321009 13.3178678,14.9488675 8.35053051,14.9488675 L4.47154243,14.9488675 L4.47154243,20.516456 L0.0623329625,20.516456 L0.0623329625,1.02989613 L8.35053051,1.02989613 Z M8.1272794,11.274259 C10.5830416,11.274259 11.9783611,10.1607413 11.9783611,7.93370592 C11.9783611,5.76234639 10.5830416,4.67666662 8.1272794,4.67666662 L4.47154243,4.67666662 L4.47154243,11.274259 L8.1272794,11.274259 Z M26.7928181,5.40045313 C31.5927171,5.40045313 34.8298582,8.43478889 34.8298582,13.0280494 C34.8298582,17.593472 31.5927171,20.6834837 26.7928181,20.6834837 C21.9650128,20.6834837 18.7278717,17.593472 18.7278717,13.0280494 C18.7278717,8.43478889 21.9650128,5.40045313 26.7928181,5.40045313 Z M26.7928181,8.9637098 C24.560307,8.9637098 23.0254556,10.6339864 23.0254556,13.0837253 C23.0254556,15.5334643 24.560307,17.2037408 26.7928181,17.2037408 C28.9974229,17.2037408 30.5322743,15.5334643 30.5322743,13.0837253 C30.5322743,10.6339864 28.9974229,8.9637098 26.7928181,8.9637098 Z M62.3975351,14.1415671 L62.3975351,5.53964285 L58.1278575,5.53964285 L58.1278575,13.9467015 C58.1278575,15.672654 57.011602,16.8140096 55.3930314,16.8140096 C53.6349289,16.8140096 52.4628606,15.672654 52.4628606,13.9467015 L52.4628606,5.53964285 L48.2210894,5.53964285 L48.2210894,13.9467015 C48.2210894,15.672654 47.1327402,16.8140096 45.4304505,16.8140096 C43.7281608,16.8140096 42.5839988,15.672654 42.5839988,13.9467015 L42.5839988,5.53964285 L38.3143213,5.53964285 L38.3143213,14.1415671 C38.3143213,18.094555 40.9096155,20.7113216 44.7327908,20.7113216 C47.0490211,20.7113216 49.3652514,19.4864521 50.3698814,17.6491479 C51.4303242,19.4864521 53.7465544,20.7113216 56.0348784,20.7113216 C59.8580537,20.7113216 62.3975351,18.094555 62.3975351,14.1415671 Z M74.1422893,17.3429305 C75.5934215,17.3429305 76.988741,16.6748199 78.132903,15.3942746 L80.5886652,17.62131 C78.8584691,19.6534798 76.5701452,20.6834837 73.835319,20.6834837 C69.0633265,20.6834837 65.8540918,17.62131 65.8540918,13.0558874 C65.8540918,8.54614066 68.8400754,5.42829108 73.5562551,5.40045313 C77.9096518,5.37261519 80.7840099,8.01721975 80.9514482,12.3042629 L70.5702715,15.0323813 C71.2121185,16.4799543 72.4958124,17.3429305 74.1422893,17.3429305 Z M73.7795063,8.5739786 C71.6586207,8.5739786 70.2912076,9.93803779 70.1516757,12.4712906 L76.7375835,10.6896622 C76.2631749,9.24208923 75.2306385,8.5739786 73.7795063,8.5739786 Z M89.0125592,8.23992329 L89.0125592,5.53964285 L84.7149752,5.53964285 L84.7149752,20.516456 L89.0125592,20.516456 L89.0125592,13.3064289 C89.0125592,10.7731761 90.9101936,9.13073745 93.9798964,9.40911688 L93.9798964,5.37261519 C91.7473853,5.40045313 90.0450955,6.40261907 89.0125592,8.23992329 Z" id="Power"></path>
                    <path d="M103.40569,1.02989613 C108.233496,1.02989613 111.024134,3.4239592 111.024134,7.57181266 C111.024134,11.8588558 108.233496,14.3364327 103.40569,14.3364327 L98.298821,14.3364327 L98.298821,20.516456 L96.0663099,20.516456 L96.0663099,1.02989613 L103.40569,1.02989613 Z M103.321971,12.276425 C106.838176,12.276425 108.875342,10.6896622 108.875342,7.62748855 C108.875342,4.64882868 106.838176,3.08990389 103.321971,3.08990389 L98.298821,3.08990389 L98.298821,12.276425 L103.321971,12.276425 Z M117.717832,9.13073745 L117.717832,5.87369816 L115.541134,5.87369816 L115.541134,20.516456 L117.717832,20.516456 L117.717832,12.7218321 C117.96899,9.77101014 119.894531,7.85019209 122.99214,7.90586798 L122.99214,5.79018433 C120.508471,5.81802228 118.694556,6.98721587 117.717832,9.13073745 Z M128.095173,0.194757853 C127.285888,0.194757853 126.671948,0.807192592 126.671948,1.67016881 C126.671948,2.5053071 127.285888,3.14557978 128.095173,3.14557978 C128.904459,3.14557978 129.518399,2.5053071 129.518399,1.67016881 C129.518399,0.807192592 128.904459,0.194757853 128.095173,0.194757853 Z M127.034731,5.87369816 L127.034731,20.516456 L129.183523,20.516456 L129.183523,5.87369816 L127.034731,5.87369816 Z M143.467758,5.79018433 C140.788745,5.81802228 138.807391,6.8758641 137.774855,9.10289951 L137.774855,5.87369816 L135.598157,5.87369816 L135.598157,20.516456 L137.774855,20.516456 L137.774855,12.6661562 C138.026012,9.82668602 139.812021,7.90586798 142.714286,7.87803003 C145.30958,7.87803003 146.872338,9.43695482 146.872338,12.0537214 L146.872338,20.516456 L149.049036,20.516456 L149.049036,11.4969626 C149.049036,7.93370592 146.983963,5.79018433 143.467758,5.79018433 Z M161.072854,17.8440135 C160.263569,18.3172585 159.48219,18.595638 158.756624,18.595638 C157.47293,18.595638 156.77527,17.62131 156.77527,15.5334643 L156.77527,8.01721975 L161.435637,8.01721975 L161.435637,6.31910524 L156.77527,6.31910524 L156.77527,2.47746915 L154.626478,2.47746915 L154.626478,15.8953575 C154.626478,19.0410451 156.189236,20.5999698 158.421747,20.5999698 C159.510097,20.5999698 160.654258,20.2102386 161.714701,19.5142901 L161.072854,17.8440135 Z" id="Print"></path>
                </g>
            </g>
        </g>
    </g>
</svg>