<?xml version="1.0" encoding="UTF-8" standalone="no"?>
<svg width="1920px" height="1853px" viewBox="0 0 1920 1853" version="1.1" xmlns="http://www.w3.org/2000/svg" xmlns:xlink="http://www.w3.org/1999/xlink">
    <!-- Generator: Sketch 46.2 (44496) - http://www.bohemiancoding.com/sketch -->
    <title>2-1</title>
    <desc>Created with Sketch.</desc>
    <defs>
        <path d="M2.0718922,112.948601 C117.644882,233.846082 295.867633,363.165657 427.589497,419.970232 C646.182903,514.237844 1033.01322,511.592746 1280.07189,446.740545 C1527.13057,381.888344 1829.9556,386.863701 1924.07189,482.830923 C1924.07189,626.142548 1924.07189,1589.31202 1924.07189,1745.01171 C1821.50899,1640.65797 1713.9487,1589.31202 1605.86269,1589.31202 C1230.68333,1589.31202 837.930576,1922.26531 331.19877,1722.96149 C194.969337,1669.38079 85.2364135,1660.93759 2,1697.63188 C2.43514591,1363.89178 2.16473183,335.09459 2.0718922,112.948601 Z" id="path-1"></path>
        <filter x="-11.0%" y="-12.2%" width="121.9%" height="125.2%" filterUnits="objectBoundingBox" id="filter-2">
            <feOffset dx="0" dy="7" in="SourceAlpha" result="shadowOffsetOuter1"></feOffset>
            <feGaussianBlur stdDeviation="69" in="shadowOffsetOuter1" result="shadowBlurOuter1"></feGaussianBlur>
            <feColorMatrix values="0 0 0 0 0   0 0 0 0 0   0 0 0 0 0  0 0 0 0.0692085598 0" type="matrix" in="shadowBlurOuter1"></feColorMatrix>
        </filter>
    </defs>
    <g id="Page-1" stroke="none" stroke-width="1" fill="none" fill-rule="evenodd">
        <g id="Power-Print-White-v3" transform="translate(0.000000, -615.000000)">
            <g id="Услуги-bg-" transform="translate(959.000000, 1629.500000) scale(-1, 1) translate(-959.000000, -1629.500000) translate(-4.000000, 607.000000)">
                <g id="2-1" transform="translate(963.035946, 949.743832) rotate(-180.000000) translate(-963.035946, -949.743832) ">
                    <use fill="black" fill-opacity="1" filter="url(#filter-2)" xlink:href="#path-1"></use>
                    <use fill="#FFFFFF" fill-rule="evenodd" xlink:href="#path-1"></use>
                </g>
            </g>
        </g>
    </g>
</svg>