<?xml version="1.0" encoding="UTF-8" standalone="no"?>
<svg width="1920px" height="2217px" viewBox="0 0 1920 2217" version="1.1" xmlns="http://www.w3.org/2000/svg" xmlns:xlink="http://www.w3.org/1999/xlink">
    <!-- Generator: Sketch 46.2 (44496) - http://www.bohemiancoding.com/sketch -->
    <title>2-3</title>
    <desc>Created with Sketch.</desc>
    <defs>
        <path d="M0.722226907,0.348085309 C106.473708,218.329034 215.335558,359.6216 355.722227,440.558964 C687.932189,608.628315 1304.98356,494.170265 1716.63553,390.034497 C1793.55238,370.576812 1862.58196,365.969676 1923.7243,376.213091 C1925.44996,712.307002 1922.72276,1579.24572 1925.00207,1945.27709 C1806.07024,1803.63573 1690.24233,1732.81506 1577.51833,1732.81506 C1202.34126,1732.81506 695.335791,2226.88152 188.607073,1971.40116 C109.840632,1931.68903 47.9386139,1927.10492 2.90101745,1957.64886 C1.72429519,1581.43715 4.23371668,440.558964 0.722226907,0.348085309 Z" id="path-1"></path>
        <filter x="-10.9%" y="-10.0%" width="121.9%" height="120.6%" filterUnits="objectBoundingBox" id="filter-2">
            <feOffset dx="0" dy="7" in="SourceAlpha" result="shadowOffsetOuter1"></feOffset>
            <feGaussianBlur stdDeviation="69" in="shadowOffsetOuter1" result="shadowBlurOuter1"></feGaussianBlur>
            <feColorMatrix values="0 0 0 0 0   0 0 0 0 0   0 0 0 0 0  0 0 0 0.0692085598 0" type="matrix" in="shadowBlurOuter1"></feColorMatrix>
        </filter>
    </defs>
    <g id="Page-1" stroke="none" stroke-width="1" fill="none" fill-rule="evenodd" opacity="0.800000012">
        <g id="Power-Print-White-v3" transform="translate(0.000000, -503.000000)">
            <g id="Услуги-bg-" transform="translate(959.000000, 1629.500000) scale(-1, 1) translate(-959.000000, -1629.500000) translate(-4.000000, 607.000000)">
                <g id="2-3" transform="translate(962.862148, 1022.542358) rotate(-180.000000) translate(-962.862148, -1022.542358) ">
                    <use fill="black" fill-opacity="1" filter="url(#filter-2)" xlink:href="#path-1"></use>
                    <use fill="#FFFFFF" fill-rule="evenodd" xlink:href="#path-1"></use>
                </g>
            </g>
        </g>
    </g>
</svg>