<?xml version="1.0" encoding="UTF-8" standalone="no"?>
<svg width="158px" height="174px" viewBox="0 0 158 174" version="1.1" xmlns="http://www.w3.org/2000/svg" xmlns:xlink="http://www.w3.org/1999/xlink">
    <!-- Generator: Sketch 46.2 (44496) - http://www.bohemiancoding.com/sketch -->
    <title>3 ico</title>
    <desc>Created with Sketch.</desc>
    <defs></defs>
    <g id="Page-1" stroke="none" stroke-width="1" fill="none" fill-rule="evenodd">
        <g id="Power-Print-White-v3" transform="translate(-340.000000, -5283.000000)" fill-rule="nonzero">
            <g id="КАК-МЫ-РАБОТАЕТ" transform="translate(238.000000, 4667.000000)">
                <g id="3-ico" transform="translate(102.000000, 616.000000)">
                    <g id="002-shirt">
                        <path d="M98.3855019,0.0430729697 C98.3855019,19.8439705 78.9412783,21.0373452 78.9412783,21.0373452 C78.9412783,21.0373452 59.4970547,19.8414368 59.4970547,0.0430729697 L34.8180376,0.0430729697 L0,17.7105917 L13.7111133,55.7744284 L33.5722455,47.240913 L33.5722455,145.644913 L78.9412783,145.644913 L124.312778,145.644913 L124.312778,47.240913 L144.17391,55.7744284 L157.882557,17.6244457 L123.064519,0.0430729697 L98.3855019,0.0430729697 Z" id="Shape" fill="#FAD961"></path>
                        <ellipse id="Oval" fill="#FFFFFF" cx="78.9412783" cy="67.6904388" rx="27.9748155" ry="28.7322045"></ellipse>
                        <path d="M66.3353429,71.6886239 C66.3353429,78.8387368 71.9796443,84.6358518 78.9412783,84.6358518 C85.9029123,84.6358518 91.5472137,78.8387368 91.5472137,71.6886239 L66.3353429,71.6886239 L66.3353429,71.6886239 Z" id="Shape" fill="#000000"></path>
                        <ellipse id="Oval" fill="#000000" cx="68.9675412" cy="59.5167094" rx="4.86722319" ry="4.99899819"></ellipse>
                        <ellipse id="Oval" fill="#000000" cx="88.9076147" cy="59.5167094" rx="4.86722319" ry="4.99899819"></ellipse>
                    </g>
                    <g id="016-poster" transform="translate(4.000000, 83.000000)">
                        <rect id="Rectangle-path" fill="#F71C99" x="3.77728922" y="10.3036255" width="68.318684" height="80.4718115"></rect>
                        <path d="M69.2757102,13.1401363 L69.2757102,83.6784869 L6.60037534,83.6784869 L6.60037534,13.1401363 L69.2757102,13.1401363 L69.2757102,13.1401363 Z M69.9814818,12.4310086 L5.89460381,12.4310086 L5.89460381,84.3876146 L69.9800702,84.3876146 L69.9800702,12.4310086 L69.9814818,12.4310086 Z" id="Shape" fill="#FFFFFF"></path>
                        <polygon id="Shape" fill="#4A4A4A" points="12.9325575 61.8004791 27.0564573 44.9445137 41.1817687 61.8004791"></polygon>
                        <polygon id="Shape" fill="#FAD961" points="24.1882019 61.8004791 43.565865 39.2090888 62.9435281 61.8004791"></polygon>
                        <ellipse id="Oval" fill="#FAD961" cx="32.1493047" cy="36.9186063" rx="4.76113474" ry="4.78377547"></ellipse>
                        <g id="Group" transform="translate(14.468316, 0.000000)" fill="#C0C0C0">
                            <rect id="Rectangle-path" x="0.0225846889" y="0" width="3.32559545" height="10.3149715"></rect>
                            <rect id="Rectangle-path" x="43.5983305" y="0" width="3.32559545" height="10.3149715"></rect>
                        </g>
                        <g id="Group" transform="translate(0.000000, 7.623123)" fill="#000000">
                            <rect id="Rectangle-path" x="0.095984928" y="78.8918749" width="75.6855273" height="4.2547662"></rect>
                            <rect id="Rectangle-path" x="12.7419992" y="0.0056730216" width="6.82904532" height="2.67482969"></rect>
                            <rect id="Rectangle-path" x="56.302218" y="0.0056730216" width="6.82904532" height="2.67482969"></rect>
                        </g>
                    </g>
                    <g id="049-shopping-bag-1-copy" transform="translate(69.000000, 92.000000)">
                        <polygon id="Shape" fill="#4A4A4A" points="60.814708 17.5626318 6.11139421 17.5626318 0.0434276041 72.7324856 66.8826746 72.7324856"></polygon>
                        <polygon id="Shape" fill="#F71C99" points="9.79619667 59.4719679 23.2694621 43.1928548 36.7427276 59.4719679"></polygon>
                        <polygon id="Shape" fill="#FFFFFF" points="20.5329282 59.4719679 39.0176202 37.6531149 57.5023121 59.4719679"></polygon>
                        <ellipse id="Oval" fill="#F71C99" cx="28.1274048" cy="35.4418183" rx="4.54145657" ry="4.61987916"></ellipse>
                        <path d="M45.7518733,17.4071528 L42.1824812,17.4071528 L42.1824812,5.37876421 C42.1824812,4.41412086 41.4126823,3.63102895 40.4644138,3.63102895 L26.4343231,3.63102895 C25.4860546,3.63102895 24.7162557,4.41412086 24.7162557,5.37876421 L24.7162557,17.4071528 L21.1468636,17.4071528 L21.1468636,5.37876421 C21.1468636,2.41342391 23.5193196,0 26.4343231,0 L40.4644138,0 C43.3794173,0 45.7518733,2.41342391 45.7518733,5.37876421 L45.7518733,17.4071528 L45.7518733,17.4071528 Z" id="Shape" fill="#000000"></path>
                        <rect id="Rectangle-path" fill="#333333" x="11.7070113" y="16.8019813" width="43.4847144" height="1.21034298"></rect>
                    </g>
                </g>
            </g>
        </g>
    </g>
</svg>