<?xml version="1.0" encoding="UTF-8" standalone="no"?>
<svg width="30px" height="11px" viewBox="0 0 30 11" version="1.1" xmlns="http://www.w3.org/2000/svg" xmlns:xlink="http://www.w3.org/1999/xlink">
    <!-- Generator: Sketch 46.2 (44496) - http://www.bohemiancoding.com/sketch -->
    <title>arrow</title>
    <desc>Created with Sketch.</desc>
    <defs></defs>
    <g id="Page-1" stroke="none" stroke-width="1" fill="none" fill-rule="evenodd">
        <path d="M15.0004032,20 C15.1109426,20 15.2214821,19.9599736 15.3062146,19.8797166 L19.8733851,15.542367 C20.042205,15.381853 20.042205,15.1218857 19.8733851,14.9615759 C19.7043501,14.8012661 19.4305822,14.8012661 19.2617623,14.9615759 L15.4328833,18.597851 L15.4328833,-8.58932106 C15.4328833,-8.81600113 15.2395469,-9 15.0004032,-9 C14.7612596,-9 14.5679231,-8.81620535 14.5679231,-8.58932106 L14.5679231,18.597851 L10.7381839,14.9615759 C10.569364,14.8012661 10.2955962,14.8012661 10.1267762,14.9615759 C9.95774125,15.1218857 9.95774125,15.381853 10.1267762,15.542367 L14.6945918,19.8797166 C14.7791093,19.9599736 14.8896488,20 15.0004032,20 Z" id="arrow" fill="#1D1D1B" fill-rule="nonzero" transform="translate(15.000000, 5.500000) rotate(-90.000000) translate(-15.000000, -5.500000) "></path>
    </g>
</svg>