<?xml version="1.0" encoding="UTF-8" standalone="no"?>
<svg width="238px" height="153px" viewBox="0 0 238 153" version="1.1" xmlns="http://www.w3.org/2000/svg" xmlns:xlink="http://www.w3.org/1999/xlink">
    <!-- Generator: Sketch 46.2 (44496) - http://www.bohemiancoding.com/sketch -->
    <title>how1</title>
    <desc>Created with Sketch.</desc>
    <defs>
        <linearGradient x1="14.6446609%" y1="14.6446609%" x2="85.3553391%" y2="85.3553391%" id="linearGradient-1">
            <stop stop-color="#FAD961" offset="0%"></stop>
            <stop stop-color="#F71C99" offset="100%"></stop>
        </linearGradient>
    </defs>
    <g id="Page-1" stroke="none" stroke-width="1" fill="none" fill-rule="evenodd">
        <g id="Power-Print-White-v3" transform="translate(-313.000000, -4838.000000)">
            <g id="КАК-МЫ-РАБОТАЕТ" transform="translate(238.000000, 4667.000000)">
                <g id="how1" transform="translate(76.000000, 112.000000)">
                    <g id="1-ico" transform="translate(0.000000, 61.000000)" fill-rule="nonzero">
                        <g id="001-website" transform="translate(41.141732, 16.888889)">
                            <path d="M0,94.7319386 L0,3.16526764 C0,1.58263382 1.32998198,0.226090546 2.88162762,0.226090546 L138.983117,0.226090546 C140.534763,0.226090546 141.864745,1.58263382 141.864745,3.16526764 L141.864745,94.7319386 L0,94.7319386 Z" id="Shape" fill="#000000"></path>
                            <g id="Group" transform="translate(0.000000, 94.675416)" fill="#C1C1C1">
                                <path d="M141.864745,0.0565226364 L141.864745,11.813231 C141.864745,13.3958648 140.534763,14.7524081 138.983117,14.7524081 L2.88162762,14.7524081 C1.32998198,14.7524081 0,13.3958648 0,11.813231 L0,0.0565226364 L141.864745,0.0565226364 Z" id="Shape"></path>
                                <rect id="Rectangle-path" x="40.5644504" y="35.5527383" width="60.7358438" height="2.93917709"></rect>
                            </g>
                            <polygon id="Shape" fill="#9E9E9E" points="91.1037657 130.228154 50.7609789 130.228154 53.6426065 109.427824 88.222138 109.427824"></polygon>
                            <rect id="Rectangle-path" fill="#FFFFFF" x="5.76325525" y="6.10444473" width="130.338234" height="82.7491397"></rect>
                            <polygon id="Shape" fill="#666666" points="88.222138 109.427824 53.6426065 109.427824 52.0333284 121.037574 88.740831 113.165101"></polygon>
                            <g id="Group" transform="translate(18.010173, 15.543725)">
                                <rect id="Rectangle-path" fill="#424242" x="0" y="0.0700880691" width="105.844399" height="15.0938048"></rect>
                                <rect id="Rectangle-path" fill="#C1C1C1" x="0" y="18.6728182" width="105.844399" height="2.26090546"></rect>
                            </g>
                            <g id="Group" transform="translate(18.010173, 45.783335)" fill="url(#linearGradient-1)">
                                <rect id="Rectangle-path" x="74.399192" y="0.201220586" width="31.4452073" height="42.8690284"></rect>
                                <rect id="Rectangle-path" x="37.199596" y="0.201220586" width="31.4452073" height="42.8690284"></rect>
                                <rect id="Rectangle-path" x="0" y="0.201220586" width="31.4452073" height="42.8690284"></rect>
                            </g>
                            <g id="Group" transform="translate(22.720526, 52.566052)" fill="#FFFFFF">
                                <rect id="Rectangle-path" x="0.0221663663" y="0.201220586" width="9.05052738" height="1.13045273"></rect>
                                <rect id="Rectangle-path" x="0.0221663663" y="5.10964633" width="21.9801689" height="1.13045273"></rect>
                                <rect id="Rectangle-path" x="37.2173291" y="0.201220586" width="9.05274401" height="1.13045273"></rect>
                                <rect id="Rectangle-path" x="37.2173291" y="5.10964633" width="21.9823855" height="1.13045273"></rect>
                                <rect id="Rectangle-path" x="74.4213584" y="0.208003302" width="9.05274401" height="1.13045273"></rect>
                                <rect id="Rectangle-path" x="74.4213584" y="5.10964633" width="21.9823855" height="1.13045273"></rect>
                            </g>
                        </g>
                        <g id="031-eraser" transform="translate(20.000000, 91.481481)">
                            <path d="M26.9411071,56.6377956 L12.587911,48.6985674 C10.8469327,47.7358643 10.2068523,45.527792 11.1598834,43.7662501 L33.8067801,1.89583383 C34.7587984,0.135316116 36.942364,-0.511948105 38.684355,0.45177916 L53.0375512,8.39100738 C54.7785295,9.35371049 55.4186099,11.5617827 54.4655787,13.3233246 L31.8176693,55.1927168 C30.865651,56.9542586 28.6820854,57.6004987 26.9411071,56.6377956 Z" id="Shape" fill="#C1C1C1"></path>
                            <g id="Group" transform="translate(0.000000, 6.400952)">
                                <rect id="Rectangle-path" fill="#424242" transform="translate(32.810180, 22.144442) rotate(-151.320491) translate(-32.810180, -22.144442) " x="21.0370413" y="3.43650567" width="23.5462774" height="37.4158728"></rect>
                                <rect id="Rectangle-path" fill="#999999" x="0" y="50.6864469" width="64.814221" height="2.04830449"></rect>
                            </g>
                            <g id="Group" transform="translate(37.272422, 45.364405)" fill="#424242">
                                <rect id="Rectangle-path" transform="translate(4.939319, 3.384078) rotate(149.074567) translate(-4.939319, -3.384078) " x="-0.245159949" y="2.87202373" width="10.3689587" height="1.02410823"></rect>
                                <rect id="Rectangle-path" transform="translate(7.409492, 8.033366) rotate(172.484111) translate(-7.409492, -8.033366) " x="0.435575156" y="7.52129398" width="13.947834" height="1.02414334"></rect>
                            </g>
                        </g>
                        <g id="006-image-2">
                            <rect id="Rectangle-path" stroke="#242424" stroke-width="2" fill="#FFFFFF" x="0.106004899" y="0" width="48.4913647" height="39.1967937"></rect>
                            <polygon id="Shape" fill="#424242" points="5.27125313 32.2724622 16.3082997 19.1182559 27.3453462 32.2724622"></polygon>
                            <polygon id="Shape" fill="#FAD961" points="13.5501574 32.2724622 28.4924826 14.4649359 43.4339123 32.2724622"></polygon>
                            <ellipse id="Oval" fill="#F71C99" cx="20.5377496" cy="10.6946337" rx="3.6706575" ry="3.77030218"></ellipse>
                            <rect id="Rectangle-path" fill="#999999" transform="translate(49.668527, 53.654489) rotate(135.000000) translate(-49.668527, -53.654489) " x="48.3252891" y="47.5838568" width="2.68647643" height="12.1412638"></rect>
                            <path d="M38.2623956,52.4301036 C31.413606,52.4301036 25.8418005,46.7070443 25.8418005,39.6723356 C25.8418005,32.6385466 31.413606,26.9154873 38.2623956,26.9154873 C45.1102897,26.9154873 50.6820953,32.6385466 50.6820953,39.6723356 C50.6820953,46.7079641 45.1102897,52.4301036 38.2623956,52.4301036 Z" id="Shape" fill="#FFFFFF"></path>
                            <path d="M38.2615001,27.8352976 C44.6159733,27.8352976 49.7865945,33.1453621 49.7865945,39.6732554 C49.7865945,46.2002289 44.6168688,51.5112132 38.2615001,51.5112132 C31.9070269,51.5112132 26.7364057,46.2011487 26.7364057,39.6732554 C26.7364057,33.1453621 31.9070269,27.8352976 38.2615001,27.8352976 L38.2615001,27.8352976 Z M38.2615001,25.9956771 C30.9076481,25.9956771 24.9454042,32.1188539 24.9454042,39.6732554 C24.9454042,47.2267371 30.9067526,53.3508337 38.2615001,53.3508337 C45.6153521,53.3508337 51.577596,47.2276569 51.577596,39.6732554 C51.577596,32.1188539 45.6162476,25.9956771 38.2615001,25.9956771 L38.2615001,25.9956771 Z" id="Shape" fill="#F71C99"></path>
                        </g>
                    </g>
                    <text id="1" font-family="Lato-LightItalic, Lato" font-size="215" font-style="italic" font-weight="300" letter-spacing="47.7777786" fill="#FBCA69">
                        <tspan x="139" y="212">1</tspan>
                    </text>
                </g>
            </g>
        </g>
    </g>
</svg>