<?xml version="1.0" encoding="UTF-8" standalone="no"?>
<svg width="235px" height="185px" viewBox="0 0 235 185" version="1.1" xmlns="http://www.w3.org/2000/svg" xmlns:xlink="http://www.w3.org/1999/xlink">
    <!-- Generator: Sketch 46.2 (44496) - http://www.bohemiancoding.com/sketch -->
    <title>how2</title>
    <desc>Created with Sketch.</desc>
    <defs>
        <linearGradient x1="0%" y1="0%" x2="100%" y2="100%" id="linearGradient-1">
            <stop stop-color="#FAD961" offset="0%"></stop>
            <stop stop-color="#FDBD70" offset="20%"></stop>
            <stop stop-color="#FE9F7D" offset="40%"></stop>
            <stop stop-color="#FD7F87" offset="60%"></stop>
            <stop stop-color="#FB5A91" offset="80%"></stop>
            <stop stop-color="#F71C99" offset="100%"></stop>
        </linearGradient>
    </defs>
    <g id="Page-1" stroke="none" stroke-width="1" fill="none" fill-rule="evenodd">
        <g id="how2" transform="translate(-8.000000, -39.000000)">
            <g id="2-ico" transform="translate(86.000000, 39.000000)" fill-rule="nonzero">
                <g id="036-pantone-1" transform="translate(0.000000, 109.000000)">
                    <rect id="Rectangle-path" fill="#333333" x="76.4067797" y="0" width="15.5932203" height="17.754386"></rect>
                    <rect id="Rectangle-path" fill="#666666" x="61.5932203" y="0" width="15.5932203" height="17.754386"></rect>
                    <rect id="Rectangle-path" fill="#FFE095" x="46" y="0" width="15.5932203" height="17.754386"></rect>
                    <rect id="Rectangle-path" fill="#FF937E" x="31.1864407" y="0" width="15.5932203" height="17.754386"></rect>
                    <rect id="Rectangle-path" fill="#FF3E83" x="15.5932203" y="0" width="15.5932203" height="17.754386"></rect>
                    <rect id="Rectangle-path" fill="#333333" x="0" y="26.245614" width="15.5932203" height="17.754386"></rect>
                    <rect id="Rectangle-path" fill="#666666" x="15.5932203" y="26.245614" width="15.5932203" height="17.754386"></rect>
                    <rect id="Rectangle-path" fill="#999999" x="30.4067797" y="26.245614" width="15.5932203" height="17.754386"></rect>
                    <rect id="Rectangle-path" fill="#FBCE66" x="46" y="26.245614" width="15.5932203" height="17.754386"></rect>
                    <rect id="Rectangle-path" fill="#FE9E7D" x="60.8135593" y="26.245614" width="15.5932203" height="17.754386"></rect>
                </g>
                <g id="012-printer-1" transform="translate(10.000000, 0.000000)">
                    <rect id="Rectangle-path" fill="url(#linearGradient-1)" x="18.6268657" y="0" width="66.7462687" height="53.6010679"></rect>
                    <polygon id="Shape" fill="#999999" points="28.7164179 40.3950077 41.9112507 24.8584663 55.1044776 40.3950077"></polygon>
                    <polygon id="Shape" fill="#FFFFFF" points="39.5820896 41.1718348 57.8208955 19.4206768 76.0597015 41.1718348"></polygon>
                    <ellipse id="Oval" fill="#999999" cx="47.3432836" cy="17.8670226" rx="4.65671642" ry="4.66096243"></ellipse>
                    <rect id="Rectangle-path" fill="#CCCCCC" x="0" y="53.6010679" width="104" height="46.6096243" rx="4"></rect>
                    <rect id="Rectangle-path" fill="#CCCCCC" x="0" y="97.1033839" width="104" height="3.88413536"></rect>
                    <rect id="Rectangle-path" fill="#FFFFFF" x="31.8208955" y="61.3693387" width="41.1343284" height="15.5365414" rx="6"></rect>
                    <rect id="Rectangle-path" fill="#CCCCCC" x="34.9253731" y="63.6998199" width="10.8656716" height="10.875579"></rect>
                    <g id="Group" transform="translate(48.119403, 63.699820)" fill="#FF3E83">
                        <rect id="Rectangle-path" x="11.950997" y="0.0943918177" width="3.81809353" height="3.78552229"></rect>
                        <rect id="Rectangle-path" x="0.147359204" y="0.0943918177" width="3.81809353" height="3.78552229"></rect>
                        <rect id="Rectangle-path" x="6.04338308" y="0.0943918177" width="3.81809353" height="3.78552229"></rect>
                        <rect id="Rectangle-path" x="0.147359204" y="6.88567791" width="3.81809353" height="3.78552229"></rect>
                        <rect id="Rectangle-path" x="6.04338308" y="6.88567791" width="3.81809353" height="3.78552229"></rect>
                        <rect id="Rectangle-path" x="17.8486766" y="0.0943918177" width="3.81809353" height="3.78552229"></rect>
                        <rect id="Rectangle-path" x="11.950997" y="6.88567791" width="3.81809353" height="3.78552229"></rect>
                        <rect id="Rectangle-path" x="17.8486766" y="6.88567791" width="3.81809353" height="3.78552229"></rect>
                    </g>
                    <rect id="Rectangle-path" fill="#FFFFFF" x="16.2985075" y="86.2278049" width="71.4029851" height="3.10730829" rx="1.55365414"></rect>
                    <g id="Group" transform="translate(9.313433, 100.210692)" fill="#868686">
                        <rect id="Rectangle-path" x="0.0453165452" y="0.16926653" width="7.93686921" height="3.57340453"></rect>
                        <rect id="Rectangle-path" x="77.3860932" y="0.16926653" width="7.93686921" height="3.57340453"></rect>
                    </g>
                </g>
                <g id="025-file" transform="translate(76.000000, 78.000000)">
                    <path d="M64.9002184,106.224638 L6.72799916,106.224638 C3.45146762,106.224638 0.771428571,103.540121 0.771428571,100.258116 L0.771428571,6.74188403 C0.771428571,3.45987868 3.45146762,0.775362319 6.72799916,0.775362319 L74.2720008,0.775362319 C77.5485324,0.775362319 80.2285714,3.45987868 80.2285714,6.74188403 L80.2285714,90.9141915" id="Shape" fill="#FFFFFF"></path>
                    <path d="M64.2423408,107 L6.71669535,107 C3.01383821,107 0,103.950786 0,100.204465 L0,6.79553479 C0,3.04921414 3.01383821,0 6.71669535,0 L73.5118761,0 C77.2147332,0 80.2285714,3.04921414 80.2285714,6.79553479 L80.2285714,90.8695904 L78.5762478,90.8695904 L78.5762478,6.79553479 C78.5762478,3.97033091 76.3043029,1.67171828 73.5118761,1.67171828 L6.71669535,1.67171828 C3.9242685,1.67171828 1.65232358,3.97033091 1.65232358,6.79553479 L1.65232358,100.202793 C1.65232358,103.027997 3.9242685,105.32661 6.71669535,105.32661 L64.2423408,105.32661 L64.2423408,107 Z" id="Shape" fill="#CCCCCC"></path>
                    <path d="M64.8,93.9732376 L64.8,107 L81,90.7173913 L68.0393279,90.7173913 C66.2583696,90.7173913 64.8,92.1815089 64.8,93.9732376 Z" id="Shape" fill="#000000"></path>
                    <g id="Group" opacity="0.5" transform="translate(5.400000, 10.079710)" fill="#CCCCCC">
                        <rect id="Rectangle-path" x="0.11664" y="0.161880883" width="1" height="87.3322333"></rect>
                    </g>
                    <g id="Group" opacity="0.5" transform="translate(70.971429, 0.000000)" fill="#CCCCCC">
                        <polygon id="Shape" points="4.51024099 55.6305903 3.70527205 55.6305903 3.70527205 7.72717309 0.0587627329 7.72717309 0.0587627329 0 0.863731677 0 0.863731677 6.88451518 4.51024099 6.88451518"></polygon>
                    </g>
                    <g id="Group" transform="translate(16.971429, 69.782609)" fill="#999999">
                        <rect id="Rectangle-path" x="0.110629565" y="0.14225314" width="47.5324502" height="1.65410628"></rect>
                        <rect id="Rectangle-path" x="0.110629565" y="8.53849662" width="47.5324502" height="1.65410628"></rect>
                        <rect id="Rectangle-path" x="0.110629565" y="16.9347401" width="19.2561988" height="1.65410628"></rect>
                    </g>
                    <g id="Group" opacity="0.5" transform="translate(12.342857, 48.072464)" fill="#CCCCCC">
                        <rect id="Rectangle-path" x="0.00423529412" y="0.173104146" width="21.5728941" height="9.00833974"></rect>
                    </g>
                    <g id="Group" opacity="0.5" transform="translate(14.657143, 33.340580)" fill="#CCCCCC">
                        <rect id="Rectangle-path" x="0.0411029126" y="0.150600607" width="21.3634485" height="9.00833974"></rect>
                    </g>
                    <g id="Group" opacity="0.5" transform="translate(49.371429, 31.789855)" fill="#CCCCCC">
                        <rect id="Rectangle-path" x="0.148473786" y="0.10732457" width="21.3634485" height="9.00833974"></rect>
                    </g>
                    <g id="Group" opacity="0.5" transform="translate(42.428571, 16.282609)" fill="#CCCCCC">
                        <rect id="Rectangle-path" x="0.182027184" y="0.164448938" width="21.3634485" height="9.00833974"></rect>
                    </g>
                    <path d="M52.9026627,50.7181932 L61.8148443,50.7181932 L63.761202,55.826087 L68.6571429,55.826087 L59.729938,33.3405797 L54.9708764,33.3405797 L46.2857143,55.826087 L51.0614684,55.826087 L52.9026627,50.7181932 Z M57.2978255,38.5848411 L60.3675955,46.9285199 L54.2864796,46.9285199 L57.2978255,38.5848411 Z" id="Shape" fill="#999999"></path>
                    <path d="M24.0640179,45.8211516 L38.8157177,45.8211516 L42.0384472,54.2753623 L50.1428571,54.2753623 L35.3665439,17.057971 L27.4902192,17.057971 L13.1142857,54.2753623 L21.0185057,54.2753623 L24.0640179,45.8211516 Z M31.3397729,25.7372302 L36.4216432,39.5462707 L26.3547157,39.5462707 L31.3397729,25.7372302 Z" id="Shape" fill="url(#linearGradient-1)"></path>
                </g>
            </g>
            <path d="M96.8575,202.6475 C98.0041724,202.6475 98.8641638,202.969997 99.4375,203.615 C100.010836,204.260003 100.225834,205.119995 100.0825,206.195 L99.33,212 L8.7075,212 L9.245,208.4525 C9.31666702,207.664163 9.58541434,206.875837 10.05125,206.0875 C10.5170857,205.299163 11.0724968,204.618336 11.7175,204.045 L65.79,151.37 C70.7350247,146.496642 75.303729,141.856272 79.49625,137.44875 C83.688771,133.041228 87.3079014,128.580023 90.35375,124.065 C93.3995986,119.549977 95.7824914,114.891691 97.5025,110.09 C99.2225086,105.288309 100.0825,100.056695 100.0825,94.395 C100.0825,89.6649763 99.3658405,85.5621007 97.9325,82.08625 C96.4991595,78.6103993 94.5462624,75.7258448 92.07375,73.4325 C89.6012376,71.1391552 86.7345996,69.4370889 83.47375,68.32625 C80.2129004,67.2154111 76.7550183,66.66 73.1,66.66 C68.7283115,66.66 64.6075194,67.394576 60.7375,68.86375 C56.8674807,70.332924 53.3558491,72.3754036 50.2025,74.99125 C47.0491509,77.6070964 44.3258448,80.7424817 42.0325,84.3975 C39.7391552,88.0525183 37.9475065,92.0658115 36.6575,96.4375 C36.0841638,97.9425075 35.3495878,98.9458308 34.45375,99.4475 C33.5579122,99.9491692 32.4291735,100.128334 31.0675,99.985 L26.015,99.2325 C27.6633416,92.7824677 30.0283179,87.0133588 33.11,81.925 C36.1916821,76.8366412 39.8466455,72.5366842 44.075,69.025 C48.3033545,65.5133158 52.9974742,62.8258426 58.1575,60.9625 C63.3175258,59.0991573 68.799971,58.1675 74.605,58.1675 C79.5500247,58.1675 84.190395,58.9199925 88.52625,60.425 C92.862105,61.9300075 96.6424839,64.151652 99.8675,67.09 C103.092516,70.028348 105.636657,73.701228 107.5,78.10875 C109.363343,82.516272 110.295,87.622471 110.295,93.4275 C110.295,100.020866 109.291677,106.040806 107.285,111.4875 C105.278323,116.934194 102.555017,122.094142 99.115,126.9675 C95.6749828,131.840858 91.6975226,136.588727 87.1825,141.21125 C82.6674774,145.833773 77.9016917,150.581642 72.885,155.455 L22.79,204.3675 C25.0833448,203.794164 27.4662376,203.364168 29.93875,203.0775 C32.4112624,202.790832 34.8658212,202.6475 37.3025,202.6475 L96.8575,202.6475 Z" id="2" fill="#FC6A8C"></path>
        </g>
    </g>
</svg>