<?xml version="1.0" encoding="UTF-8" standalone="no"?>
<svg width="223px" height="174px" viewBox="0 0 223 174" version="1.1" xmlns="http://www.w3.org/2000/svg" xmlns:xlink="http://www.w3.org/1999/xlink">
    <!-- Generator: Sketch 46.2 (44496) - http://www.bohemiancoding.com/sketch -->
    <title>how3</title>
    <desc>Created with Sketch.</desc>
    <defs></defs>
    <g id="Page-1" stroke="none" stroke-width="1" fill="none" fill-rule="evenodd">
        <g id="how3" transform="translate(0.000000, -51.000000)">
            <g id="3-ico" transform="translate(0.000000, 51.000000)" fill-rule="nonzero">
                <g id="002-shirt">
                    <path d="M98.3855019,0.0430729697 C98.3855019,19.8439705 78.9412783,21.0373452 78.9412783,21.0373452 C78.9412783,21.0373452 59.4970547,19.8414368 59.4970547,0.0430729697 L34.8180376,0.0430729697 L0,17.7105917 L13.7111133,55.7744284 L33.5722455,47.240913 L33.5722455,145.644913 L78.9412783,145.644913 L124.312778,145.644913 L124.312778,47.240913 L144.17391,55.7744284 L157.882557,17.6244457 L123.064519,0.0430729697 L98.3855019,0.0430729697 Z" id="Shape" fill="#FAD961"></path>
                    <ellipse id="Oval" fill="#FFFFFF" cx="78.9412783" cy="67.6904388" rx="27.9748155" ry="28.7322045"></ellipse>
                    <path d="M66.3353429,71.6886239 C66.3353429,78.8387368 71.9796443,84.6358518 78.9412783,84.6358518 C85.9029123,84.6358518 91.5472137,78.8387368 91.5472137,71.6886239 L66.3353429,71.6886239 L66.3353429,71.6886239 Z" id="Shape" fill="#000000"></path>
                    <ellipse id="Oval" fill="#000000" cx="68.9675412" cy="59.5167094" rx="4.86722319" ry="4.99899819"></ellipse>
                    <ellipse id="Oval" fill="#000000" cx="88.9076147" cy="59.5167094" rx="4.86722319" ry="4.99899819"></ellipse>
                </g>
                <g id="016-poster" transform="translate(4.000000, 83.000000)">
                    <rect id="Rectangle-path" fill="#F71C99" x="3.77728922" y="10.3036255" width="68.318684" height="80.4718115"></rect>
                    <path d="M69.2757102,13.1401363 L69.2757102,83.6784869 L6.60037534,83.6784869 L6.60037534,13.1401363 L69.2757102,13.1401363 L69.2757102,13.1401363 Z M69.9814818,12.4310086 L5.89460381,12.4310086 L5.89460381,84.3876146 L69.9800702,84.3876146 L69.9800702,12.4310086 L69.9814818,12.4310086 Z" id="Shape" fill="#FFFFFF"></path>
                    <polygon id="Shape" fill="#4A4A4A" points="12.9325575 61.8004791 27.0564573 44.9445137 41.1817687 61.8004791"></polygon>
                    <polygon id="Shape" fill="#FAD961" points="24.1882019 61.8004791 43.565865 39.2090888 62.9435281 61.8004791"></polygon>
                    <ellipse id="Oval" fill="#FAD961" cx="32.1493047" cy="36.9186063" rx="4.76113474" ry="4.78377547"></ellipse>
                    <g id="Group" transform="translate(14.468316, 0.000000)" fill="#C0C0C0">
                        <rect id="Rectangle-path" x="0.0225846889" y="0" width="3.32559545" height="10.3149715"></rect>
                        <rect id="Rectangle-path" x="43.5983305" y="0" width="3.32559545" height="10.3149715"></rect>
                    </g>
                    <g id="Group" transform="translate(0.000000, 7.623123)" fill="#000000">
                        <rect id="Rectangle-path" x="0.095984928" y="78.8918749" width="75.6855273" height="4.2547662"></rect>
                        <rect id="Rectangle-path" x="12.7419992" y="0.0056730216" width="6.82904532" height="2.67482969"></rect>
                        <rect id="Rectangle-path" x="56.302218" y="0.0056730216" width="6.82904532" height="2.67482969"></rect>
                    </g>
                </g>
                <g id="049-shopping-bag-1-copy" transform="translate(69.000000, 92.000000)">
                    <polygon id="Shape" fill="#4A4A4A" points="60.814708 17.5626318 6.11139421 17.5626318 0.0434276041 72.7324856 66.8826746 72.7324856"></polygon>
                    <polygon id="Shape" fill="#F71C99" points="9.79619667 59.4719679 23.2694621 43.1928548 36.7427276 59.4719679"></polygon>
                    <polygon id="Shape" fill="#FFFFFF" points="20.5329282 59.4719679 39.0176202 37.6531149 57.5023121 59.4719679"></polygon>
                    <ellipse id="Oval" fill="#F71C99" cx="28.1274048" cy="35.4418183" rx="4.54145657" ry="4.61987916"></ellipse>
                    <path d="M45.7518733,17.4071528 L42.1824812,17.4071528 L42.1824812,5.37876421 C42.1824812,4.41412086 41.4126823,3.63102895 40.4644138,3.63102895 L26.4343231,3.63102895 C25.4860546,3.63102895 24.7162557,4.41412086 24.7162557,5.37876421 L24.7162557,17.4071528 L21.1468636,17.4071528 L21.1468636,5.37876421 C21.1468636,2.41342391 23.5193196,0 26.4343231,0 L40.4644138,0 C43.3794173,0 45.7518733,2.41342391 45.7518733,5.37876421 L45.7518733,17.4071528 L45.7518733,17.4071528 Z" id="Shape" fill="#000000"></path>
                    <rect id="Rectangle-path" fill="#333333" x="11.7070113" y="16.8019813" width="43.4847144" height="1.21034298"></rect>
                </g>
            </g>
            <path d="M139.1225,99.2325 C140.770842,92.7824677 143.135818,87.0133588 146.2175,81.925 C149.299182,76.8366412 152.954146,72.5366842 157.1825,69.025 C161.410854,65.5133158 166.104974,62.8258426 171.265,60.9625 C176.425026,59.0991573 181.871638,58.1675 187.605,58.1675 C192.550025,58.1675 197.154562,58.8841595 201.41875,60.3175 C205.682938,61.7508405 209.391651,63.864986 212.545,66.66 C215.698349,69.455014 218.170824,72.9308125 219.9625,77.0875 C221.754176,81.2441874 222.65,86.0458061 222.65,91.4925 C222.65,97.297529 221.807925,102.475394 220.12375,107.02625 C218.439575,111.577106 216.128348,115.572483 213.19,119.0125 C210.251652,122.452517 206.79377,125.319155 202.81625,127.6125 C198.83873,129.905845 194.55669,131.625828 189.97,132.7725 C194.485023,133.704171 198.444566,135.13749 201.84875,137.0725 C205.252934,139.00751 208.083739,141.372486 210.34125,144.1675 C212.598761,146.962514 214.300828,150.133732 215.4475,153.68125 C216.594172,157.228768 217.1675,161.080813 217.1675,165.2375 C217.1675,172.189201 215.805847,178.62122 213.0825,184.53375 C210.359153,190.44628 206.686273,195.570395 202.06375,199.90625 C197.441227,204.242105 192.066281,207.628321 185.93875,210.065 C179.811219,212.501679 173.307534,213.72 166.4275,213.72 C158.47246,213.72 151.968775,212.555428 146.91625,210.22625 C141.863725,207.897072 137.850432,204.869185 134.87625,201.1425 C131.902068,197.415815 129.734173,193.241273 128.3725,188.61875 C127.010827,183.996227 126.007503,179.39169 125.3625,174.805 L129.4475,173.1925 C130.665839,172.690831 131.866244,172.547499 133.04875,172.7625 C134.231256,172.977501 135.001665,173.801659 135.36,175.235 C135.646668,176.095004 135.969165,177.420824 136.3275,179.2125 C136.685835,181.004176 137.241246,183.010822 137.99375,185.2325 C138.746254,187.454178 139.803327,189.747488 141.165,192.1125 C142.526673,194.477512 144.354155,196.62749 146.6475,198.5625 C148.940845,200.49751 151.753733,202.092077 155.08625,203.34625 C158.418767,204.600423 162.485809,205.2275 167.2875,205.2275 C173.594198,205.2275 179.219975,204.027095 184.165,201.62625 C189.110025,199.225405 193.302483,196.107936 196.7425,192.27375 C200.182517,188.439564 202.798324,184.157524 204.59,179.4275 C206.381676,174.697476 207.2775,170.003357 207.2775,165.345 C207.2775,161.403314 206.632506,157.74835 205.3425,154.38 C204.052494,151.01165 201.956265,148.073346 199.05375,145.565 C196.151235,143.056654 192.370857,141.08584 187.7125,139.6525 C183.054143,138.219159 177.392533,137.5025 170.7275,137.5025 L171.5875,130.3 C178.109199,130.156666 183.914141,129.189176 189.0025,127.3975 C194.090859,125.605824 198.390816,123.097516 201.9025,119.8725 C205.414184,116.647484 208.101657,112.795439 209.965,108.31625 C211.828343,103.837061 212.76,98.802528 212.76,93.2125 C212.76,88.6974774 212.061257,84.7737667 210.66375,81.44125 C209.266243,78.1087333 207.367095,75.3495943 204.96625,73.16375 C202.565405,70.9779057 199.752516,69.3475054 196.5275,68.2725 C193.302484,67.1974946 189.862518,66.66 186.2075,66.66 C181.835811,66.66 177.715019,67.394576 173.845,68.86375 C169.974981,70.332924 166.445433,72.3754036 163.25625,74.99125 C160.067067,77.6070964 157.307928,80.7424817 154.97875,84.3975 C152.649572,88.0525183 150.840006,92.0658115 149.55,96.4375 C148.904997,97.9425075 148.188337,98.9458308 147.4,99.4475 C146.611663,99.9491692 145.50084,100.128334 144.0675,99.985 L139.1225,99.2325 Z" id="3" fill="#FEAB78"></path>
        </g>
    </g>
</svg>