<?xml version="1.0" encoding="UTF-8" standalone="no"?>
<svg width="234px" height="153px" viewBox="0 0 234 153" version="1.1" xmlns="http://www.w3.org/2000/svg" xmlns:xlink="http://www.w3.org/1999/xlink">
    <!-- Generator: Sketch 46.2 (44496) - http://www.bohemiancoding.com/sketch -->
    <title>how4</title>
    <desc>Created with Sketch.</desc>
    <defs>
        <linearGradient x1="14.6446609%" y1="14.6446609%" x2="85.3553391%" y2="85.3553391%" id="linearGradient-1">
            <stop stop-color="#FAD961" offset="0%"></stop>
            <stop stop-color="#F71C99" offset="100%"></stop>
        </linearGradient>
    </defs>
    <g id="Page-1" stroke="none" stroke-width="1" fill="none" fill-rule="evenodd">
        <g id="how4" transform="translate(-7.000000, -59.000000)">
            <g id="4-ico" transform="translate(90.000000, 62.000000)" fill-rule="nonzero">
                <g id="048-billboard" transform="translate(18.000000, 0.000000)">
                    <rect id="Rectangle-path" fill="#FFFFFF" x="8.97916921" y="4.53783491" width="114.812205" height="60.4064653"></rect>
                    <path d="M123.281006,5.07044464 L123.281006,64.4138209 L9.49783656,64.4138209 L9.49783656,5.07044464 L123.281006,5.07044464 L123.281006,5.07044464 Z M124.31834,4.00522518 L8.46050186,4.00522518 L8.46050186,65.4790404 L124.31834,65.4790404 L124.31834,4.00522518 L124.31834,4.00522518 Z" id="Shape" fill="#CCCCCC"></path>
                    <rect id="Rectangle-path" fill="#000000" x="67.802271" y="70.7731811" width="6.22400823" height="56.9359803"></rect>
                    <rect id="Rectangle-path" fill="#000000" x="58.7525631" y="70.7731811" width="6.22400823" height="56.9359803"></rect>
                    <rect id="Rectangle-path" fill="#000000" x="0" y="64.4031687" width="132.778842" height="6.39131678"></rect>
                    <rect id="Rectangle-path" fill="#000000" x="14.101528" y="0.117174141" width="16.2882295" height="3.9242685"></rect>
                    <rect id="Rectangle-path" fill="#000000" x="58.2359704" y="0.117174141" width="16.2882295" height="3.9242685"></rect>
                    <rect id="Rectangle-path" fill="#000000" x="102.384935" y="0.117174141" width="16.2882295" height="3.9242685"></rect>
                    <rect id="Rectangle-path" fill="url(#linearGradient-1)" x="18.5267978" y="15.7950742" width="36.9187422" height="37.9111607"></rect>
                    <g id="Group" transform="translate(66.389421, 19.706560)" fill="#CCCCCC">
                        <rect id="Rectangle-path" x="0.0414933882" y="0.087347996" width="47.8211299" height="2.13043893"></rect>
                        <rect id="Rectangle-path" x="0.0414933882" y="7.0325789" width="47.8211299" height="2.13043893"></rect>
                        <rect id="Rectangle-path" x="0.0414933882" y="13.9778098" width="47.8211299" height="2.13043893"></rect>
                        <rect id="Rectangle-path" x="0.0414933882" y="20.9209103" width="47.8211299" height="2.13043893"></rect>
                        <rect id="Rectangle-path" x="0.0414933882" y="27.8682716" width="47.8211299" height="2.13043893"></rect>
                    </g>
                </g>
                <g id="003-shop" transform="translate(0.000000, 78.000000)">
                    <polyline id="Shape" fill="#C4C4C4" points="70.4900324 21.8102343 70.4900324 68.2678067 7.46949746 68.3150918 7.46949746 21.8102343"></polyline>
                    <rect id="Rectangle-path" fill="#565656" x="0.0389797649" y="65.8264043" width="77.9071508" height="4.97737483"></rect>
                    <rect id="Rectangle-path" fill="#999999" x="29.1593004" y="42.8072901" width="19.6360566" height="23.0191143"></rect>
                    <path d="M12.4528168,0.125056543 L0,12.7638556 L0.00243623531,12.7638556 L0.00243623531,24.7979036 C0.00243623531,30.2717716 4.36451556,34.7115899 9.74615935,34.7115899 C15.1278032,34.7115899 19.4898825,30.2717716 19.4898825,24.7979036 C19.4898825,30.2717716 23.8519618,34.7115899 29.2336056,34.7115899 C34.6152494,34.7115899 38.9797649,30.2717716 38.9797649,24.7979036 C38.9797649,30.2717716 43.3418443,34.7115899 48.7234881,34.7115899 C54.1051319,34.7115899 58.4672112,30.2717716 58.4672112,24.7979036 L58.4733018,24.7979036 C58.4733018,30.2717716 62.8353811,34.7115899 68.2170249,34.7115899 C73.5974506,34.7115899 77.960748,30.2717716 77.960748,24.7979036 L77.960748,12.7638556 L77.9473487,12.7638556 L65.4920957,0.125056543 L12.4528168,0.125056543 Z" id="Shape" fill="#4A4A4A"></path>
                    <g id="Group" transform="translate(23.448765, 5.694543)" fill="url(#linearGradient-1)">
                        <rect id="Rectangle-path" x="8.17235134" y="0.257815398" width="14.7148613" height="5.07145691"></rect>
                        <rect id="Rectangle-path" x="0.108412471" y="9.26257566" width="30.8451752" height="3.38097127"></rect>
                    </g>
                </g>
                <g id="047-delivery-truck" transform="translate(76.000000, 102.000000)">
                    <polygon id="Shape" fill="#FAD961" points="0 0.0679138088 0 34.3482173 42.6809453 34.3482173 42.6809453 0.0679138088"></polygon>
                    <polygon id="Shape" fill="#CCCCCC" points="5.7560009 23.8862567 14.5591069 13.3887223 23.3622129 23.8862567"></polygon>
                    <polygon id="Shape" fill="#F71C99" points="12.771429 23.8862567 24.8481867 9.81624036 36.9249444 23.8862567"></polygon>
                    <ellipse id="Oval" fill="#FAD961" cx="17.7329063" cy="8.39112837" rx="2.96657909" ry="2.97850561"></ellipse>
                    <g id="Group" transform="translate(4.563142, 29.779666)" fill="#999999">
                        <path d="M27.4550828,0.0991757208 C24.0966104,0.0991757208 21.3726831,2.80818209 21.3726831,6.14673869 C21.3726831,9.48529529 24.0976841,12.1943017 27.4550828,12.1943017 C30.8124816,12.1943017 33.5374826,9.48529529 33.5374826,6.14673869 C33.5374826,2.80818209 30.8167763,0.0991757208 27.4550828,0.0991757208 L27.4550828,0.0991757208 Z" id="Shape"></path>
                        <path d="M6.0963576,0.0991757208 C2.73788515,0.0991757208 0.0139578459,2.80818209 0.0139578459,6.14673869 C0.0139578459,9.48529529 2.73895883,12.1943017 6.0963576,12.1943017 C9.45375637,12.1943017 12.1787574,9.48529529 12.1787574,6.14673869 C12.1787574,2.80818209 9.4580511,0.0991757208 6.0963576,0.0991757208 L6.0963576,0.0991757208 Z" id="Shape"></path>
                    </g>
                    <polygon id="Shape" fill="#565656" points="68.7155489 34.3697772 68.7155489 20.3849226 59.5581283 8.18523095 49.2067751 8.18523095 49.2067751 34.3482173"></polygon>
                    <path d="M58.961162,29.8788419 C55.6026895,29.8788419 52.8787622,32.5878482 52.8787622,35.9264048 C52.8787622,39.2649614 55.6037632,41.9739678 58.961162,41.9739678 C62.3196344,41.9739678 65.0435617,39.2649614 65.0435617,35.9264048 C65.0435617,32.5878482 62.3185608,29.8788419 58.961162,29.8788419 L58.961162,29.8788419 Z" id="Shape" fill="#999999"></path>
                </g>
            </g>
            <path d="M77.9375,160.2925 L87.72,80.0975 C87.9350011,77.8041552 88.3649968,75.4391788 89.01,73.0025 L18.1675,160.2925 L77.9375,160.2925 Z M112.015,160.2925 L111.37,165.6675 C111.226666,166.455837 110.922086,167.082914 110.45625,167.54875 C109.990414,168.014586 109.291671,168.2475 108.36,168.2475 L85.6775,168.2475 L80.3025,212 L71.595,212 L76.97,168.2475 L10.965,168.2475 C9.96166165,168.2475 9.20916917,168.014586 8.7075,167.54875 C8.20583082,167.082914 7.91916703,166.455837 7.8475,165.6675 L7.4175,160.83 L90.1925,59.78 L99.0075,59.78 L86.645,160.2925 L112.015,160.2925 Z" id="4" fill="#FC6B8C"></path>
        </g>
    </g>
</svg>