<?xml version="1.0" encoding="UTF-8" standalone="no"?>
<svg width="572px" height="111px" viewBox="0 0 572 111" version="1.1" xmlns="http://www.w3.org/2000/svg" xmlns:xlink="http://www.w3.org/1999/xlink">
    <!-- Generator: Sketch 46.2 (44496) - http://www.bohemiancoding.com/sketch -->
    <title>Logo big</title>
    <desc>Created with Sketch.</desc>
    <defs></defs>
    <g id="Page-1" stroke="none" stroke-width="1" fill="none" fill-rule="evenodd">
        <g id="Power-Print-White-v3" transform="translate(-668.000000, -293.000000)">
            <g id="Logo-big" transform="translate(683.000000, 299.000000)">
                <path d="M0,67.5464711 L22.6666667,90 L22.6666667,67.5464711 C28.1096903,67.5464711 34.4101046,67.5464711 41.5679096,67.5464711 C52.3046172,67.5464711 68,62.8008886 68,46.150722 C68,29.5005553 54.350484,22.8722822 45.6366889,22.4535289 C36.4344011,22.3840467 28.777727,22.3840467 22.6666667,22.4535289 L0.0248798381,4.17794497e-14 C9.93352936,-1.39264832e-14 17.4807916,-1.39264832e-14 22.6666667,4.17794497e-14 C30.4454792,1.24088159e-13 45.6366889,7.07554025 45.6366889,22.4535289 C45.6366889,37.8315175 30.4762765,45.3862024 22.6666667,45.3862024 C17.4602601,45.3862024 9.90470459,45.3862024 0,45.3862024 L0,67.5464711 Z" id="Path-3-Copy-3" stroke="#4A4A4A" stroke-width="12"></path>
                <g id="Group-32" transform="translate(103.000000, 29.000000)" fill="#4A4A4A">
                    <path d="M23.402104,2.89351771 C37.3229134,2.89351771 45.3000064,9.77611763 45.3000064,21.8988789 C45.3000064,34.647331 37.3229134,41.9991991 23.402104,41.9991991 L12.5313597,41.9991991 L12.5313597,57.6414717 L0.174686204,57.6414717 L0.174686204,2.89351771 L23.402104,2.89351771 Z M22.7764497,31.6752992 C29.6586476,31.6752992 33.5689873,28.5468447 33.5689873,22.2899357 C33.5689873,16.1894494 29.6586476,13.1392062 22.7764497,13.1392062 L12.5313597,13.1392062 L12.5313597,31.6752992 L22.7764497,31.6752992 Z M75.0860459,15.1727017 C88.5376145,15.1727017 97.6096026,23.6977402 97.6096026,36.6026151 C97.6096026,49.4292786 88.5376145,58.1107398 75.0860459,58.1107398 C61.5562706,58.1107398 52.4842824,49.4292786 52.4842824,36.6026151 C52.4842824,23.6977402 61.5562706,15.1727017 75.0860459,15.1727017 Z M75.0860459,25.1837561 C68.8295024,25.1837561 64.5281287,29.8764379 64.5281287,36.7590378 C64.5281287,43.6416377 68.8295024,48.3343195 75.0860459,48.3343195 C81.2643827,48.3343195 85.5657563,43.6416377 85.5657563,36.7590378 C85.5657563,29.8764379 81.2643827,25.1837561 75.0860459,25.1837561 Z M174.867166,39.7310696 L174.867166,15.5637585 L162.901527,15.5637585 L162.901527,39.18359 C162.901527,44.0326945 159.773255,47.2393604 155.237261,47.2393604 C150.310233,47.2393604 147.025547,44.0326945 147.025547,39.18359 L147.025547,15.5637585 L135.138115,15.5637585 L135.138115,39.18359 C135.138115,44.0326945 132.08805,47.2393604 127.317435,47.2393604 C122.546821,47.2393604 119.340342,44.0326945 119.340342,39.18359 L119.340342,15.5637585 L107.374703,15.5637585 L107.374703,39.7310696 C107.374703,50.8370831 114.647935,58.1889512 125.362266,58.1889512 C131.853429,58.1889512 138.344593,54.7476512 141.160038,49.5857013 C144.131896,54.7476512 150.62306,58.1889512 157.036017,58.1889512 C167.750348,58.1889512 174.867166,50.8370831 174.867166,39.7310696 Z M207.781477,48.7253763 C211.848231,48.7253763 215.75857,46.8483036 218.965049,43.2505809 L225.847247,49.5074899 C220.998426,55.2169194 214.585469,58.1107398 206.921203,58.1107398 C193.547841,58.1107398 184.55406,49.5074899 184.55406,36.6808264 C184.55406,24.0105857 192.922187,15.250913 206.139135,15.1727017 C218.339395,15.0944903 226.394694,22.5245698 226.863935,34.5691196 L197.771008,42.2338332 C199.569764,46.3008241 203.167277,48.7253763 207.781477,48.7253763 Z M206.764789,24.088797 C200.821073,24.088797 196.98894,27.9211538 196.597906,35.0383878 L215.054709,30.0328606 C213.725194,25.9658697 210.831542,24.088797 206.764789,24.088797 Z M249.45495,23.1502607 L249.45495,15.5637585 L237.411103,15.5637585 L237.411103,57.6414717 L249.45495,57.6414717 L249.45495,37.3847287 C249.45495,30.2674947 254.773012,25.6530243 263.375759,26.4351379 L263.375759,15.0944903 C257.119216,15.1727017 252.348601,17.9883107 249.45495,23.1502607 Z" id="Power"></path>
                    <path d="M289.791255,2.89351771 C303.321031,2.89351771 311.14171,9.61969491 311.14171,21.273188 C311.14171,33.3177378 303.321031,40.2785491 289.791255,40.2785491 L275.479412,40.2785491 L275.479412,57.6414717 L269.222869,57.6414717 L269.222869,2.89351771 L289.791255,2.89351771 Z M289.556635,34.4909083 C299.410691,34.4909083 305.119787,30.0328606 305.119787,21.4296107 C305.119787,13.0609949 299.410691,8.68115855 289.556635,8.68115855 L275.479412,8.68115855 L275.479412,34.4909083 L289.556635,34.4909083 Z M329.900592,25.6530243 L329.900592,16.5022948 L323.800462,16.5022948 L323.800462,57.6414717 L329.900592,57.6414717 L329.900592,35.7422901 C330.604453,27.4518856 336.000722,22.0553016 344.681676,22.2117243 L344.681676,16.2676607 C337.721271,16.3458721 332.63783,19.6307493 329.900592,25.6530243 Z M358.98277,0.547176824 C356.714773,0.547176824 354.994224,2.26782681 354.994224,4.69237905 C354.994224,7.03871993 356.714773,8.83758128 358.98277,8.83758128 C361.250767,8.83758128 362.971317,7.03871993 362.971317,4.69237905 C362.971317,2.26782681 361.250767,0.547176824 358.98277,0.547176824 Z M356.010912,16.5022948 L356.010912,57.6414717 L362.032835,57.6414717 L362.032835,16.5022948 L356.010912,16.5022948 Z M402.063965,16.2676607 C394.556112,16.3458721 389.00343,19.3179039 386.109779,25.5748129 L386.109779,16.5022948 L380.009649,16.5022948 L380.009649,57.6414717 L386.109779,57.6414717 L386.109779,35.5858674 C386.81364,27.6083083 391.818875,22.2117243 399.952381,22.133513 C407.225613,22.133513 411.605194,26.5133493 411.605194,33.8652174 L411.605194,57.6414717 L417.705323,57.6414717 L417.705323,32.3009901 C417.705323,22.2899357 411.918021,16.2676607 402.063965,16.2676607 Z M451.401703,50.1331808 C449.133706,51.462774 446.943915,52.2448876 444.910539,52.2448876 C441.313026,52.2448876 439.357856,49.5074899 439.357856,43.6416377 L439.357856,22.5245698 L452.418391,22.5245698 L452.418391,17.7536766 L439.357856,17.7536766 L439.357856,6.96050857 L433.335933,6.96050857 L433.335933,44.6583854 C433.335933,53.4962694 437.715514,57.8761057 443.972057,57.8761057 C447.022122,57.8761057 450.228601,56.7811467 453.200459,54.8258626 L451.401703,50.1331808 Z" id="Print"></path>
                </g>
            </g>
        </g>
    </g>
</svg>