<svg xmlns="http://www.w3.org/2000/svg" width="193" height="186" viewBox="0 0 193 186">
    <defs>
        <linearGradient id="a" x1="0%" y1="0%" y2="100%">
            <stop offset="0%" stop-color="#FAD961"/>
            <stop offset="20%" stop-color="#FDBD70"/>
            <stop offset="40%" stop-color="#FE9F7D"/>
            <stop offset="60%" stop-color="#FD7F87"/>
            <stop offset="80%" stop-color="#FB5A91"/>
            <stop offset="100%" stop-color="#F71C99"/>
        </linearGradient>
    </defs>
    <g fill="none" fill-rule="nonzero">
        <path fill="#666" d="M101 93h18v89h-18z"/>
        <rect width="157" height="74" x="32" fill="#CCC" rx="7"/>
        <rect width="32" height="12" x="69" y="53" fill="#FFF" rx="2"/>
        <rect width="32" height="12" x="73" y="33" fill="#FFF" rx="2"/>
        <rect width="32" height="12" x="124" y="30" fill="#FFF" rx="2"/>
        <rect width="32" height="12" x="114" y="8" fill="#FFF" rx="2"/>
        <path fill="#999" d="M128.76 56.958h13.147L144.778 64H152l-13.168-31h-7.02L119 64h7.045l2.716-7.042zm6.484-16.728l4.528 11.503h-8.97l4.442-11.503z"/>
        <path fill="url(#a)" d="M88.264 50.188h21.911L114.962 62H127l-21.948-52H93.353L72 62h11.74l4.524-11.812zm10.807-28.061l7.548 19.294H91.667l7.404-19.294z"/>
        <g fill="#FF7576">
            <path d="M31.733 82.262c-2.062 0-3.733 1.73-3.733 3.862v6.875h7.466v-6.875c0-2.133-1.671-3.862-3.733-3.862zM63.24 82.262c-2.062 0-3.733 1.73-3.733 3.862v6.875h7.466v-6.875c0-2.133-1.671-3.862-3.733-3.862zM94.747 82.262c-2.062 0-3.733 1.73-3.733 3.862v6.875h7.465v-6.875c0-2.133-1.67-3.862-3.732-3.862zM126.253 82.262c-2.062 0-3.733 1.73-3.733 3.862v6.875h7.466v-6.875c0-2.133-1.67-3.862-3.733-3.862zM157.76 82.262c-2.062 0-3.733 1.73-3.733 3.862v6.875h7.466v-6.875c0-2.133-1.671-3.862-3.733-3.862zM189.267 82.262c-2.062 0-3.733 1.73-3.733 3.862v6.875H193v-6.875c0-2.133-1.671-3.862-3.733-3.862z"/>
        </g>
        <path fill="#666" d="M101 93h18v57h-18z"/>
        <path fill="#999" d="M189.267 97H31.733C29.671 97 28 95.433 28 93.5s1.671-3.5 3.733-3.5h157.534c2.062 0 3.733 1.567 3.733 3.5s-1.672 3.5-3.733 3.5z"/>
        <path fill="#000" d="M1.99 125c-1.099 0-1.99.672-1.99 1.5s.891 1.5 1.99 1.5H86v-3H1.99z"/>
        <path fill="#666" d="M86.5 139c-.828 0-1.5-.867-1.5-1.936v-20.128c0-1.07.672-1.936 1.5-1.936s1.5.867 1.5 1.936v20.128c0 1.07-.672 1.936-1.5 1.936z"/>
        <path fill="url(#a)" d="M66 23l-4 24 4 24h8V23z" transform="translate(0 115)"/>
        <g fill="#666">
            <path d="M10.006 124.052c-1.101 0-1.994.896-1.994 2.001v16.807H12v-16.807c0-1.105-.892-2-1.993-2zM58.842 124.052c-1.101 0-1.994.896-1.994 2.001v16.807h3.987v-16.807c0-1.105-.893-2-1.993-2z"/>
        </g>
        <path fill="#CCC" d="M2 138h66v48H2z"/>
        <g fill="#FFF">
            <path d="M56.915 159.775h-44.81c-1.1 0-1.992-.823-1.992-1.837s.892-1.836 1.991-1.836h44.811c1.1 0 1.992.822 1.992 1.836 0 1.014-.892 1.837-1.992 1.837zM48.45 168.957H20.57c-1.1 0-1.992-.822-1.992-1.836 0-1.015.892-1.837 1.992-1.837H48.45c1.1 0 1.992.822 1.992 1.837 0 1.014-.892 1.836-1.992 1.836z"/>
        </g>
    </g>
</svg>
