<?xml version="1.0" encoding="UTF-8" standalone="no"?>
<svg width="358px" height="100px" viewBox="0 0 358 100" version="1.1" xmlns="http://www.w3.org/2000/svg" xmlns:xlink="http://www.w3.org/1999/xlink">
    <!-- Generator: Sketch 46.2 (44496) - http://www.bohemiancoding.com/sketch -->
    <title>Почему ПаверПринт?</title>
    <desc>Created with Sketch.</desc>
    <defs></defs>
    <g id="Page-1" stroke="none" stroke-width="1" fill="none" fill-rule="evenodd">
        <g id="Power-Print-White-v3" transform="translate(-1211.000000, -2649.000000)" fill="#4A4A4A">
            <g id="Почему-ПаверПринт?" transform="translate(1209.000000, 2625.000000)">
                <text id="ПОЧЕМУ" stroke="#4A4A4A" stroke-width="8" font-family="Drugs" font-size="58" font-weight="normal" letter-spacing="4.5">
                    <tspan x="0" y="72">ПОЧЕМУ</tspan>
                </text>
                <text id="?" font-family="Arial-BoldMT, Arial" font-size="135" font-weight="bold" letter-spacing="10.4741354">
                    <tspan x="283" y="122">?</tspan>
                </text>
                <g id="PowerPrint-logo" transform="translate(3.000000, 87.000000)">
                    <path d="M14.6907481,1.8145789 C23.4295822,1.8145789 28.4372287,6.13078563 28.4372287,13.7331952 C28.4372287,21.7279872 23.4295822,26.3384808 14.6907481,26.3384808 L7.86660243,26.3384808 L7.86660243,36.1480415 L0.109659841,36.1480415 L0.109659841,1.8145789 L14.6907481,1.8145789 Z M14.2979915,19.8641707 C18.618314,19.8641707 21.0730427,17.9022585 21.0730427,13.9784342 C21.0730427,10.1527055 18.618314,8.2398412 14.2979915,8.2398412 L7.86660243,8.2398412 L7.86660243,19.8641707 L14.2979915,19.8641707 Z M47.1355134,9.51508409 C55.57978,9.51508409 61.2747505,14.8612947 61.2747505,22.9541823 C61.2747505,30.9980221 55.57978,36.4423284 47.1355134,36.4423284 C38.6421522,36.4423284 32.9471817,30.9980221 32.9471817,22.9541823 C32.9471817,14.8612947 38.6421522,9.51508409 47.1355134,9.51508409 Z M47.1355134,15.793203 C43.2079475,15.793203 40.507746,18.7360712 40.507746,23.0522779 C40.507746,27.3684847 43.2079475,30.3113529 47.1355134,30.3113529 C51.0139847,30.3113529 53.7141862,27.3684847 53.7141862,23.0522779 C53.7141862,18.7360712 51.0139847,15.793203 47.1355134,15.793203 Z M109.773441,24.9160945 L109.773441,9.76032311 L102.261972,9.76032311 L102.261972,24.5727599 C102.261972,27.6137237 100.298189,29.6246836 97.4507034,29.6246836 C94.3577453,29.6246836 92.2957732,27.6137237 92.2957732,24.5727599 L92.2957732,9.76032311 L84.833398,9.76032311 L84.833398,24.5727599 C84.833398,27.6137237 82.9187097,29.6246836 79.9239407,29.6246836 C76.9291717,29.6246836 74.9162942,27.6137237 74.9162942,24.5727599 L74.9162942,9.76032311 L67.4048245,9.76032311 L67.4048245,24.9160945 C67.4048245,31.8808826 71.9706198,36.4913762 78.6965764,36.4913762 C82.771426,36.4913762 86.8462755,34.3332728 88.6136802,31.0961178 C90.479274,34.3332728 94.5541236,36.4913762 98.5798786,36.4913762 C105.305835,36.4913762 109.773441,31.8808826 109.773441,24.9160945 Z M130.435509,30.5565919 C132.988427,30.5565919 135.443155,29.3794446 137.456033,27.1232457 L141.776355,31.04707 C138.732492,34.6275596 134.706737,36.4423284 129.895469,36.4423284 C121.500297,36.4423284 115.854421,31.04707 115.854421,23.0032301 C115.854421,15.0574859 121.10754,9.5641319 129.404523,9.51508409 C137.063276,9.46603629 142.120017,14.1255776 142.414585,21.6789394 L124.151404,26.4856242 C125.280579,29.03611 127.538929,30.5565919 130.435509,30.5565919 Z M129.79728,15.1065337 C126.066092,15.1065337 123.660458,17.5098761 123.414985,21.9732263 L135.001304,18.8341668 C134.166697,16.283681 132.350197,15.1065337 129.79728,15.1065337 Z M156.596169,14.5179601 L156.596169,9.76032311 L149.035605,9.76032311 L149.035605,36.1480415 L156.596169,36.1480415 L156.596169,23.4446604 C156.596169,18.9813102 159.9346,16.0874898 165.335003,16.5779678 L165.335003,9.46603629 C161.407437,9.51508409 158.412668,11.280805 156.596169,14.5179601 Z" id="Power"></path>
                    <path d="M181.917418,1.8145789 C190.410779,1.8145789 195.320237,6.03269003 195.320237,13.3408128 C195.320237,20.8941746 190.410779,25.2594291 181.917418,25.2594291 L172.933111,25.2594291 L172.933111,36.1480415 L169.005545,36.1480415 L169.005545,1.8145789 L181.917418,1.8145789 Z M181.770134,21.6298916 C187.956051,21.6298916 191.539954,18.8341668 191.539954,13.4389084 C191.539954,8.19079339 187.956051,5.44411638 181.770134,5.44411638 L172.933111,5.44411638 L172.933111,21.6298916 L181.770134,21.6298916 Z M207.096186,16.0874898 L207.096186,10.3488968 L203.26681,10.3488968 L203.26681,36.1480415 L207.096186,36.1480415 L207.096186,22.4146565 C207.538038,17.2155893 210.925563,13.8312908 216.375061,13.9293864 L216.375061,10.2017533 C212.005644,10.2508012 208.814497,12.3108089 207.096186,16.0874898 Z M225.35262,0.343144788 C223.928877,0.343144788 222.848797,1.42219647 222.848797,2.94267839 C222.848797,4.4141125 223.928877,5.54221199 225.35262,5.54221199 C226.776363,5.54221199 227.856443,4.4141125 227.856443,2.94267839 C227.856443,1.42219647 226.776363,0.343144788 225.35262,0.343144788 Z M223.487026,10.3488968 L223.487026,36.1480415 L227.267308,36.1480415 L227.267308,10.3488968 L223.487026,10.3488968 Z M252.396982,10.2017533 C247.683903,10.2508012 244.198188,12.1146177 242.381689,16.038442 L242.381689,10.3488968 L238.552313,10.3488968 L238.552313,36.1480415 L242.381689,36.1480415 L242.381689,22.3165609 C242.82354,17.3136849 245.965593,13.9293864 251.071429,13.8803386 C255.637224,13.8803386 258.38652,16.6270156 258.38652,21.2375092 L258.38652,36.1480415 L262.215897,36.1480415 L262.215897,20.2565531 C262.215897,13.9784342 258.582898,10.2017533 252.396982,10.2017533 Z M283.36891,31.4394524 C281.945168,32.273265 280.57052,32.7637431 279.294061,32.7637431 C277.03571,32.7637431 275.808346,31.04707 275.808346,27.3684847 L275.808346,14.1255776 L284.00714,14.1255776 L284.00714,11.1336616 L275.808346,11.1336616 L275.808346,4.3650647 L272.028064,4.3650647 L272.028064,28.0061061 C272.028064,33.5485079 274.77736,36.295185 278.704926,36.295185 C280.619614,36.295185 282.632492,35.6085157 284.498086,34.3823206 L283.36891,31.4394524 Z" id="Print"></path>
                </g>
            </g>
        </g>
    </g>
</svg>